<svg xmlns="http://www.w3.org/2000/svg" viewBox="0 0 1206.04 1288.75"><defs><style>.cls-1{fill:#199fd9;}.cls-2{fill:#f8fcfd;}.cls-3{fill:#fdfefe;}</style></defs><title>techcreek-logo</title><g id="Layer_2" data-name="Layer 2"><g id="Layer_1-2" data-name="Layer 1"><path class="cls-1" d="M525.24,757.71h0l0,0Z"/><path class="cls-1" d="M1205.79,164c0-9.28,0-9.28-9.1-9.28q-593.94,0-1187.87,0c-10,0-8.77-1.22-8.77,8.52Q0,368.92.06,574.54.06,741.23,0,908c0,2.9-.27,5.82,2.06,8.14,5.83,5.84,12.56,9.44,21.12,8.89,3.75-.24,6.08-2.21,7.52-5.42a8.71,8.71,0,0,0-1.22-9.27,26.27,26.27,0,0,0-4.7-4.2c-7.55-6-8.34-15.75-4.73-23.79,4.39-9.77,10.92-18.49,20.32-24.42a5.12,5.12,0,0,0,2.69-3.5c1.52-7.87-3.07-13.56-6.68-19.73-2.67-4.57-6.72-3.56-10.64-3.72-7.51-.31-11.18-4.37-11-11.87.14-4.95,2.58-8.77,5.7-12.25,7.75-8.67,17.72-11.67,29.06-11.78,10.33-.1,14.52-3.75,16.2-13.6,1.1-6.51,4.19-11.58,9.92-14.67,6.52-3.53,8.15-8.48,5.93-15.33-1.69-5.25.3-9.45,4.63-12.61,3.57-2.6,7.11-5.25,10.83-7.63,2.86-1.83,4.39-4,4.22-7.57-.24-4.78,3-7.14,7-8.75,1.32-.53,3-.82,3.77.36.95,1.48-.44,2.32-1.75,3s-2.47,1.56-1.91,3.09a3.64,3.64,0,0,0,3.2,2.19,8.25,8.25,0,0,0,7.22-2.53,38.21,38.21,0,0,1,17.83-9.75c5.41-1.29,6.25,4.79,10.08,6.11,2.94,1,2.15,3.75,2,6-.17,3.06-2.75,2.22-4.43,2.29-3.09.13-6.19-.17-9.28-.24-1.88-.05-3.05.35-3.57,2.71-1.42,6.36-13.05,11-19,7.93-8.49-4.41-20.27-.27-24.3,8.52-.87,1.88-2.1,3.48-1.11,5.91,3.46,8.51.76,14.22-7,19.74a20,20,0,0,0-8.65,12.8c-2.42,11-9.76,17.7-20.57,17.56-9.73-.13-16.62,5.4-24,9.93A9.89,9.89,0,0,0,22.31,821c.94,3.89,5.12,2.69,8,3,6,.57,10.67,2.73,13.14,8.62.8,1.93,2.34,3.55,3.13,5.48,1.43,3.48,3.63,2.91,6,1.35,1.09-.73,1.81-2,2.8-2.92,3-2.77,6.54-6.48,10.43-4.8,3.61,1.56,1.69,6.53,1.91,10,.15,2.42-1.5,5.28.85,7.14,4.06,3.2,7.7,7,12.49,9.2,3.33,1.53,5.83,1.71,7.91-2.51,2.86-5.81,7.19-7.68,13.62-5.45,5.77,2,7.92-.91,9.78-5,3.45-7.64,6.42-9.56,14.36-7.57,5.12,1.29,5.43-.43,4-4.47-.46-1.26-.26-2.8-.87-3.94-2.84-5.3.33-7.93,4.13-10.81,10.4-7.88,19.84-4.22,29.1,2,3.05,2.06,5.8,4.63,9.85,2.36,1.17-.66,2.73-1.4,3.55.16,1.08,2-1,2.51-2.22,3.33-3,2.13-6.24,1.81-9.28.26a32.56,32.56,0,0,1-6.73-4.41c-6.75-6-13.2-6.3-21-1.16-3.56,2.36-3.94,3.86-2.47,7,.49,1,1,2.09,1.47,3.14,3.66,8.17,1.47,11.74-7.24,11.81a28.36,28.36,0,0,1-5.22-.14c-3.82-.67-6.42,1.59-6.93,4.5-1.48,8.47-7.06,9-13.77,8.27-4.81-.54-8.52.27-11.82,4.89-4.14,5.78-9.74,5.72-15.74,1.4-2.78-2-5.26-4.6-8.3-6-5.65-2.64-8.31-6.06-5.43-12.27.42-.9,1.4-2.25-.27-2.92-1.13-.46-2.12.16-3,1-4.09,3.88-5.44,8.93-5.53,14.2-.08,5-2.53,7.74-6.7,9.69a38.43,38.43,0,0,0-10.75,7.62c-11.39,11.2-12.14,20.07-.92,30.87,9.47,9.13,1.24,24.45-7.73,27-4.64,1.32-9.36,2.41-13.95,3.87-1.53.49-3.34,1.31-3.65,3.34-.36,2.38,1.92,3,3.2,3.53,4.43,1.74,9.07,3,13.61,4.44,7.32,2.36,12.35-.68,15.71-7,2.14-4,4.51-7.88,5.06-12.71.47-4.12,2.89-7.28,7.93-5.78,2.07.61,4.22.76,5.16-1.17,1.64-3.34,4.68-4.43,7.64-5.64,1.59-.64,2.21-1.46,1.93-3-.67-3.58.6-6.41,4-7.29,3.24-.83,5,2.11,6.93,4.2,2.43,2.66,4.6,5.61,7.29,8,3,2.67,5.89,3.24,6.73-2.16.42-2.66,1.42-5.22,1.94-7.87,1-5,3.32-7.37,8.33-4.39,1.82,1.08,3.55.66,3.62-1,.34-7.2,8.76-7.75,10.74-13.54.51-1.5,2.4-1.45,3.54-.8,1.71,1,.17,2.27-.07,3.47a5,5,0,0,1-2.46,3.09c-4.67,3.1-8.33,6.73-10,12.44-.91,3.12-3.61,3.93-6.19.9s-3.36-.7-4,1.48c-.31,1.1.1,2.5-.42,3.42-2,3.51-.39,8.64-5.44,10.81-5.47,2.36-13,.86-15.29-7.5-.47-1.72-1.24-4.1-3.52-3.95-3.09.22-1.6,3-1.77,4.61-.26,2.66,0,5.1-4.12,4-2.32-.65-4.88.27-5.23,3.2-.49,4-3.24,5.24-6.43,5.08-4.22-.22-6,2-6.82,5.46a42.21,42.21,0,0,1-8.63,16.6c-3.7,4.48-3.28,7.77-.52,12.37,5.49,9.14,12,18.17,7.72,30-.9,2.54,1,5.21,2.18,7.64.81,1.64,2.1,2,3.85,1.76a3,3,0,0,0,2.9-3c.27-2.68.57-5.36.85-8,.2-1.92.14-3.87,2.73-4.44,7-1.53,13.78-1.71,20.3,1.67,9.68,5,16.49,1.44,17.59-9.53.5-5,3-7.12,7.85-7.19,7.59-.13,9.13-1.85,8.12-9.58a89.81,89.81,0,0,1-1-15.61c.13-2.94.75-5.61,5-6.25-2.36,7.21-.7,13.71.58,20.36,1.93,10-.34,13.05-10,15.36-.94.22-1.84.67-2.79.8-3.29.46-3.9,1.93-2.82,5.12,1.72,5.13-.36,8.86-5.1,11.51-7.77,4.34-14.81,3.5-22.17-1.37-6.74-4.47-10.78-2.28-11.62,5.36-.64,5.85-4.8,9.14-9.32,11.7s-6.76-1.69-9.47-4.28c-3.18-3-6.74-2.44-7.6,1.09-1.64,6.69,5.71,18.19,12.31,20.65,6.8,2.53,13.87,3.27,20.88,4.08,11.54,1.33,23.12,5.7,33.84-4.63s23.3-18.17,31.27-31c3.64-5.84,8.78-10,14.64-13.3,2.31-1.31,5-1.88,7.12-3.7s2.45-3.48.36-5.73c-8.92-9.66-7.56-16.9,4.13-22.48,3.41-1.63,7.53-2.47,6.83-7.75-.17-1.3.75-2.14,2.09-2.28,1-.11,2.28.29,2.33,1.25.17,3.65,1.94,7.81-2.78,10.21-2.21,1.13-4.3,2.49-6.49,3.68-3.17,1.72-6.21,3.8-5.71,7.84.54,4.31,3.76,6.5,7.77,7.64,17,4.83,29.84-4.47,35.31-20.95,2.55-7.66,3.45-16,10-21.63,3.84-3.29,3.65-6.85,1.66-10.9-2.45-5-5.3-9.82-7.09-15-5.76-16.85-8.92-33.37,3.37-49.43,4.85-6.35,8.78-14.07,7.31-23-.26-1.61-.69-3.89,1.72-4.25,2.2-.32,3.25,1.44,4,3.36,1.73,4.25-.39,7.82-1.64,11.65-.8,2.46-3.43,5.7-1.47,7.41,1.76,1.53,5.34-.08,7.91-1.33,1.52-.75,3.33-2.19,4.27.31a3.24,3.24,0,0,1-2.2,4.6,31.77,31.77,0,0,0-4.15,2c-8,4.07-14.65,9.63-16.17,19a57.93,57.93,0,0,0,7.17,38.44c4.57,8,10.25,15.13,1,23.36-.38.34-.41,1.07-.57,1.62-3.61,12.62-11.85,22.6-19.13,33.07-5.37,7.73-12.29,13.36-22.69,12.17-4.2-.48-7.36,2.12-10.38,4.37-5.07,3.75-9.57,8.29-14.73,11.91-9.39,6.57-12.64,16.08-13.91,26.76-.35,3-.43,6,2.47,7.72,2.58,1.52,4.78.46,7.32-1.26,6.11-4.13,12.26-3.69,15.79.54,1,1.19,3.09,2.6,1.38,4.38-1.44,1.5-2.67-.21-3.89-1.1-3.78-2.78-7.29-3.56-11.24.25-2.93,2.82-6.94,3.19-10.8,1.46a8,8,0,0,1-5.08-8.27c0-1.45.43-3-1.16-5-12,7.7-22.2,18.36-36.08,23.54a161.07,161.07,0,0,0,15.08,7.08c8.48,3.69,16.86,7.55,21.4,16.39,1.49,2.91,3.84,5.61,7,5.44,12.4-.7,24.59,2.54,36.93,1.64,3.83-.28,6.94-.4,9.9,2.92,2.54,2.84,6.25,4.62,10.13,1.39,5.5-4.57,12.1-7.38,18-11.26,1.92-1.26,4.14-2.36,3.61-5.3-.49-2.72-2.8-3.41-4.89-4.25-3.05-1.21-6.17-2.25-9.23-3.44-5-1.93-8.39-7-7.62-12.19s5.21-4.78,9-5.17l.57,0c1.41-.14,2.86-.51,3.4-1.87.67-1.64-.79-2.45-1.94-3.09-4.77-2.63-5.76-7.18-4.09-11.45s6-2.18,9.24-1.63c2,.33,4,.65,5.28-1.11s-.94-3-1.66-4.45c-4.31-8.54-3.31-12.35,5-16,3.46-1.52,3.53-3.76,2.77-6.52-1.19-4.39-1.74-8.65.44-12.93,1.17-2.31,1-4.92,1-7.43A16.13,16.13,0,0,1,230,960.6c3.57-4,6.58-8.57,6.63-13.85.12-12.27,7.25-19.28,16.41-25.93C263.2,913.41,274.2,907,283.3,898.1c1.4-1.37,3.51-3,5.54-.72s-.24,3.54-1.47,4.81c-9.79,10.11-22.49,16.57-32.74,26.16-6.16,5.76-12.16,11-12.2,20.6a15.39,15.39,0,0,1-5,11.23,11.06,11.06,0,0,0-4,7.49,49.4,49.4,0,0,1-4.53,17.24,7.17,7.17,0,0,0,.47,7.59c4.4,6.68,2.17,12-6,11.87-4.19-.06-5.55,2.08-3,6a34.79,34.79,0,0,1,3.27,6.72c1.86,5-.14,7.67-5.52,8-2.89.19-5.95-1-9,.66,1.77,2.6,3.87,4.19,5.76,6,4.7,4.55,3.46,8.74-3,10.54-1.67.47-3.42.65-5.1,1.1-1.34.36-3.62-.31-3.52,2s2.31,2.37,4,2.28c7.63-.38,11.5,5.55,16.14,9.84,2.74,2.53,1.24,9.58-2.07,11.66-3.81,2.4-6.55,5.77-9.58,9-2,2.13-3.5,3.82-.95,6.15a5.1,5.1,0,0,0,7.3-.06,90.89,90.89,0,0,0,12.63-14.15C236,1062.64,241,1055,249,1049.93c7.15-4.52,7.72-12.75,8.75-19.75,2.56-17.34,1.49-35.13,5.87-52.3,4.32-16.89,5.8-25.17,24.73-26.41a11.67,11.67,0,0,0,7.7-3.67c8.26-8.92,15-18.76,17.89-30.85,1-2.62-.37-5.9,2.2-8.11-.34-2,1-3.34,2-4.76,2.41-3.89,6.18-6.73,6.45-12.21.17-3.61,4.84-3.29,8.32-3.6-3.9,3.51-4.83,8.77-8.25,12.35a17,17,0,0,0-4.91,14.13c.24,2.44.2,4.63-2.64,5.55-1.14,8.32-6.19,15.07-9.24,22.62-3.91,9.69-12,13.93-22.17,14.61-2.9.19-5.67.91-7.63,3.45-3.81,4.95-6.51,10.51-7.1,16.66s-1.22,12.25-4.49,17.65c-1.77,2.92-.94,5.12.58,7.94,4.46,8.28,3.95,17,0,25.19-1.78,3.65-4,7-4,11.11,0,5.73-2.86,10.32-5.81,14.79a54.48,54.48,0,0,0-5.46,10.63c-1.15,3-3.07,5.1-6.66,5.58-5.15.68-9.19,3.54-12.91,7.16-6,5.79-8.51,14.11-14.93,19.49-3.67,3.07-2.86,5,1.25,7.15,11.94,6.26,24.77,10.24,37.39,14.62,11.47,4,22.16,9.7,33.57,13.68,3.09,1.08,7.21,3,9.72-.24s-.82-6.9-2.66-9.29c-2.92-3.8-3.62-10.14-10.71-10.06-4.83.06-6.61-3.48-3.15-6.67,7.66-7,13-17.69,25.59-17.88,2,0,4.66-.59,5-3.1a6.58,6.58,0,0,0-2.32-5.61,20.39,20.39,0,0,0-9.17-4.57c-1.7-.45-5-.4-4.21-3.57,1.22-4.84,1.87-9-4.39-10.77-1.37-.4-1.47-2.6-1.48-4.18,0-2.32,0-4.64.08-7,0-2.64.62-5,3.33-6.19.55-.23,1.82,0,2,.35,1,2.11,0,4-.75,6a8.62,8.62,0,0,0-.69,3.94c.21,1.75,1.43,4,3.25,3.12,7.69-3.74,4.57,3.15,4.31,4.9-.83,5.71-.37,9.86,6.61,10.34,1.4.1,2.23,1.18,3.09,2.34,4.2,5.63,6,6,12,2.33,8.08-4.93,14.55-11.81,21.55-18,3.26-2.9,2.65-6.24-.34-9a48.14,48.14,0,0,0-5.69-3.86c-5.13-3.47-11.23-4.8-16.7-7.5-3-1.47-5.17-3.68-4.37-7.28.71-3.24,2-5.91,6.09-6.63,3.79-.68,7.53-1.55,11.4-1.88a3.9,3.9,0,0,0,3.92-3.58c.31-2.46-1.28-2.94-3.13-4-3.7-2-7.53-1.57-11.31-1.52-5.18.07-10-.92-14.29-3.79-3.94-2.64-1.59-6.59-1.49-10,.09-2.84,2.53-3,4.76-2.93,3.29.13,6.59.18,9.86.5,4.55.45,7-.88,6.32-6-.63-4.76.36-9.17,3.89-12.76,1.8-1.85,1.32-3.7.06-5.76-3.3-5.4-1.64-10.42,2.82-13.81,5.38-4.09,5.46-9.37,3.76-14.41-2-5.8-.74-11.48-1.22-17.18-.16-1.87.88-3.35,2.51-3.21s1.42,2.1,1.34,3.39c-.53,8.79,1.55,17.29,2.66,25.9.47,3.69.39,6.6-4.22,8-3.91,1.23-5.57,7.89-3.18,10.15,4.88,4.61,4.95,6.34-.13,10.9a7.2,7.2,0,0,0-2.84,5.91c.11,14.7.06,14.62-14.95,12.41-1.91-.28-4.95-1.84-5.77,1.71-.68,2.93,1.1,4.67,3.68,5.76a15.58,15.58,0,0,0,6.22,1.15c4.26,0,8.52.12,12.78,0,4.45-.09,7.38,2.2,8.92,6,1.76,4.34-1.46,6.66-4.32,9.08a16.06,16.06,0,0,1-11.86,3.73,5,5,0,0,0-5,2.93c-.38,1,2,2.3,3.66,3.06,7.32,3.33,14.65,6.62,21.36,11.18s7.78,4.12,11.34-3.35c.33-.69.4-1.49.72-2.19,2.8-6,6.71-10.24,14.19-9.57,2.13.19,5.63,1.27,5.79-2.74.11-3-1.25-5.33-4.5-6.59-5.47-2.12-10.64-3.07-16,.4-3.18,2.08-5,2.11-6-2.8-1.75-8.27-1.55-16.54-1.84-24.82a10.54,10.54,0,0,0-3.09-7.71c-6.57-6.65-5.68-10.91,3.86-15.7-3.17,6.59-2.28,12,2.22,16.85.94,1,1.06,2.87,1.33,4.38a91.84,91.84,0,0,1,1.67,16.72c-.05,4.31-1,10.19,6.52,5.19a2.54,2.54,0,0,1,1.71-.07c9.37,2.12,16-3.8,23.1-8.06,3.08-1.85,3.77-4.9,1.12-7.88-5.05-5.69-5.07-12.18-3.34-19.06,1.87-7.43,3.93-14.85,4.22-22.58.24-6.72.25-13.45,2.63-19.92A116.18,116.18,0,0,0,401,924.66c3.31-13,1.9-26.13,1.46-39.26-.35-10.13,1.12-19.72,5.94-29s12.29-16.6,17.52-25.55c2-3.45,2-5.93-.61-8.76-4.64-5.12-9.27-10.24-13.73-15.51-6.29-7.43-7-15.26-3.05-24.44,4.26-10,13.56-16,18.19-25.58.92-1.9,3.74-1.85,5.27-1,2.52,1.4,0,3-.73,4.21a49.2,49.2,0,0,1-8.36,10.85c-9.36,8.88-12,26.69-1.94,37.07,3.94,4.08,8.3,8,11.15,13.1,3.09,5.56,2.8,9.77-1.71,14.05-7.53,7.13-12.26,16.14-17.23,25-5.42,9.67-5.75,20-2.57,30.25,2.39,7.69,1.71,14.88.4,22.63-1.95,11.62-5.43,22.83-7.8,34.29-2.52,12.23-3,24.85-6,37.09-1.93,7.94.42,11.09,8.49,13.26q10,2.68,20.13,5c1.69.39,3.57,2.91,5.11.63,1.16-1.71-.51-3.64-1.47-5.31-4.1-7.1-6.35-14.27-2.54-22.41,1.67-3.56.24-6.75-3.6-8.49-1.2-.55-2.3-1.34-3.5-1.91s-2-1.57-1.53-2.75c.57-1.43,1.92-.74,3-.47,8.44,2.14,11.47,6.67,10.29,15.2-.35,2.49-.54,5-.65,7.52-.44,10.08,9.77,24.74,19.4,27.48,2.18.63,5.2,2.1,6.86-.79,1.42-2.48,1-4.71-1.62-7-4.91-4.27-4.72-14.12.31-17.34,3.93-2.51,6.28-6,8.89-9.56a42.28,42.28,0,0,1,6.08-6A2.22,2.22,0,0,1,474,971c.83.83.06,1.76-.44,2.57-3.41,5.49-5.95,11.56-11.13,15.84-3.39,2.8-4,6.88-2.73,10.56,1.17,3.51,5,3,8.08,2.92s6,.47,8.52,2.74c5.07,4.6,10.82,5.55,17.13,2.64,1-.47,2.45-1.11,3.28-.75,4.67,2,5.75-.7,6.5-4.37.43-2.06,1.41-4,1.81-6.09,2.8-14.57.23-29.34,1.53-44,.17-1.93-1.2-3.2-2.36-4.49-7.46-8.29-13.89-17.39-20.47-26.35-6.94-9.45-7-19.63-1.94-29.91,4.23-8.66,12.44-13.4,19.61-19.07a18.21,18.21,0,0,0,7.44-14.74c.17-7.93.77-15.85.88-23.78.06-4.18,1.62-6.94,4.83-9.76,9.3-8.14,19.51-15.74,22.61-28.8.77-3.58,1.21-7.26,3.38-10.37.16-1.19.31-2.39.46-3.58,3.15-2.31,1-5.57,1.51-8.37,0-2.93,0-5.85,0-8.78.1-3.24-1.93-3.88-4.58-3.75l-3.35,0a2.09,2.09,0,0,0-2.42,1.3c-1,.95-1.64,2.48-3.43,2.17-1.46,0-3.09-.34-3.56,1.72-1.26.29-2.63,1-3.41-.78-1.76-2.78.08-6.92-3.4-9.05,0-2,0-3.94,0-5.91,2.11-9.39-2.73-14.8-11.51-18.14,4.9-1.85,10.3,1.43,18.08,10.06.8,1.15.52,2.33.09,3.52a8,8,0,0,0,.19,11.52h0v0l0,0c.08,1.13.28,2.17,1.72,2.23,1.13,0,1.49-.77,1.73-1.68l1.94-.63c1.58.18,2.58-.39,2.71-2.09,6.46-3.41,15,1.23,15.21,8.49.26,9.82.32,19.58-2.25,29.28-3.22,12.15-7.57,23.44-18.22,31.09a25.3,25.3,0,0,0-8.23,10.12c-3.09,6.49-1.82,13.33-1.8,20,0,8.52-2.29,15.79-8.31,22-3.29,3.41-7.31,5.65-11,8.41-12.64,9.45-15.15,22.08-6.54,34.75,6,8.88,12.19,17.66,18.67,26.21,4,5.29,7.41,10.17,3.6,17.12-1,1.83-.59,4.58-.42,6.87,1,13.36-.09,26.7-.21,40.05a32.22,32.22,0,0,1-3.41,14.45,39.58,39.58,0,0,0-4.28,15.36c-.52,7.68.53,15.72-2.26,23-3.95,10.31-3,20.91-3.28,31.48,0,1.14-.35,2.83,2.55,3.43,2.84-12.79,6.33-25.51,15.46-37.52-1.05,8.1-1,14.77-5.92,20.3-3,3.39-4.65,7.72-3.42,12.31,2.55,9.5,6,18.61,12.08,26.58,2.43,3.22,4.33,3.34,6.46-.22,2.25-3.78,5.74-6.55,8.55-9.81,6.29-7.28,16.32-9.47,22-17.27a2.14,2.14,0,0,1,3.1-.55c1.34,1,.86,2.1.2,3.51-2.22,4.77-6.85,6.53-10.82,9.09-9.32,6-19.11,11.41-21.8,23.69-.77,3.54-1.85,5.81,2.86,7.24,4,1.2,4.72,5,4.85,9s-2.65,4.12-5,5.14c-3.74,1.6-6,3.86-4.65,8.49,1.27,4.27.72,8.49-2.37,12a4.24,4.24,0,0,0-.43,5.76,11.66,11.66,0,0,1,2,7.12c-.37,6.18-.67,12.37-1.42,18.51-1.65,13.49-3.21,13.27,11.76,13.36,28.68.18,57.15-3.33,85.69-5.42,8.41-.61,17-1,25.38-2.25,4.68-.68,5.23-3.18,3.68-6.19-3.91-7.64-3.67-15.72-3.34-23.81.31-7.52,1.21-15,1.69-22.55.11-1.75.71-3.93-1.88-4.87-16.56-6.07-28.83-18-41.08-30-2.55-2.49-3.93-5-3.85-8.55.16-7.74,0-15.49.12-23.23.07-3.17-.76-4.88-4.21-4.26-4.34.78-6.31-1.54-8.52-5-3-4.71-2.77-9.46-2.6-14.5.39-12-5.12-17.81-16.89-17.88-7.83,0-9.39-2.34-8-10.48,1.3-7.55,4.75-15.42-2.13-22.3a2.82,2.82,0,0,1,0-4.19c1.39-1.39,2.71-.67,4.18.12,7.34,4,10.24,13.83,6.39,21.34-1.09,2.12-4.29,4.38-2.45,6.55s5.36,1.11,8.13.11c1.45-.53,3.15-.66,4.36-1.49,3.62-2.49,4.82-.45,5.52,2.67,1,4.4,3.57,7.86,6,11.53,3.08,4.58,5.7,9.46,2.8,15.58-2.06,4.34.41,7,4.84,8.49,7.78,2.57,8.72,4.15,8.48,12.08-.06,1.93-.27,3.86-.33,5.8-.09,3-.3,6.07,3.86,6.52s6-2.23,6.83-5.58c.93-3.73-.31-7.18-2.37-10.39-2.7-4.19-5.52-8.37-6-13.53-.12-1.28-.61-3,.84-3.68,1.86-.9,2.17,1.2,2.81,2.14,3.85,5.67,7.38,11.55,11.39,17.1,2,2.74,2.46,5.58.93,8.11-3.44,5.68-1.06,9.4,3.42,12.69,2.41,1.77,4.76,5.53,7.64,4.16,3.36-1.6,1.72-5.83,1.52-9-.89-14.28-5.27-28-6.54-42.25-.27-3-2.62-4.86-5.36-6.18-9.15-4.43-18.1-9.32-25.64-16.15-8.13-7.38-12.75-17-10-27.88,2.92-11.46,3.41-22.88,2.94-34.43-.48-11.8-4.94-17.86-15.16-20.79C566.85,948.83,556.33,941.94,550,930c-5-9.48-7-19.72-.56-29.5,3.21-4.85,5-9.69,5-15.55,0-6.17.62-12.36,1.09-18.53a24,24,0,0,1,5.11-13.82c9.91-12.15,14.3-26.89,19.29-41.36,2.09-6.08,2.09-12.52,3.85-18.62.35-1.22-.18-3.53,2.52-2.75,4.22,1.21,8,7.3,7.13,11.56-3.22,15.11-9.14,29.19-16,42.94-5.41,10.8-10.8,21.41-11.11,34.23a55.37,55.37,0,0,1-5.65,22.69c-10.13,20.88,3,40.13,23.25,39.32,4.66-.18,10.45-2.08,14,1.07s2.06,9.17,3.22,13.78c4,15.81,4.08,31.67,2.07,47.71-.58,4.7-1.47,9.5.95,14.21a56.31,56.31,0,0,0,21.67,23c4.86,3,6.82,1.52,8.6-2.92,3.28-8.14,5.66-16.81,11.81-23.44,4-4.35,9.28-7.44,13-12.15,2.69-3.37,2.93-6.55-.23-9.74a109.45,109.45,0,0,1-11.84-14c-6.94-9.89-6.65-18.86.88-26q3.13-3,6.51-5.66c6.59-5.28,10.26-11.72,9.1-20.53a29.7,29.7,0,0,1,3.15-17.81c6.38-12.55-.18-25.46-14-28.72a73.62,73.62,0,0,1-10.51-3.19,8.71,8.71,0,0,1-5.41-7.56c-.36-3.19,1.78-5.13,4.07-6.52a24.38,24.38,0,0,1,7.36-3c8-1.77,8.72-2.54,6-10.65s-3-15.86.89-23.62a29.19,29.19,0,0,0,2.35-19.07c-1.27-6.61-2.88-13.25-2-20.1.26-2.18-.24-4.74,3.11-5.8,3.89,10.95,5.84,22.28,8.27,33.48,1.35,6.24-.87,11.67-3.87,16.91-3.75,6.56-3,13.65-.84,20.11,3.26,9.64,3,11.21-6.93,14.34-2.19.69-4.38,1.39-6.51,2.25-1.22.48-2.47,1.18-1.91,3,4.91.83,9.57,3,14.73,2.52a5.68,5.68,0,0,1,4.78,1.76c7.59,9.12,13.56,19.42,10.37,31.51-2.89,11-7.11,21.53-6.37,33.17.08,1.26-.77,2.56-1.13,3.86-2.17,7.92-8.1,13-14.21,17.55-4.55,3.35-3.52,7.41-3.26,11.43.24,3.74,3.84,3.66,6.58,4.31,3.26.78,5.94,2.76,8.43,4.77s5.25,2.86,8.07,2.16c14.21-3.52,18.43-4.6,20.3-20.46,1.13-9.62,2-19.42,10.38-26.62,3-2.6,3.57-7.15,2-11.39-3.68-10.29-9.87-18.88-17.68-26.39-3.49-3.36-6.49-7-8.09-11.69-5.24-15.29-4.17-30.32,1.55-45.26,4.6-12,9.57-23.9,8.11-37.32a72.37,72.37,0,0,1,.29-15.07c.71-7-.54-14.35,3.45-20.85.94-1.53,1.49-3.35,3.81-2.22,2.06,1,2.1,2.78,1,4.37-1.26,1.82-2.56,4-2.11,5.86,1.92,8-.73,15.79-.53,23.61.33,12.67,0,25-5.5,36.74-.63,1.33-.18,3.13-.67,4.56-3.3,9.6-3,19.78-4.78,29.64-1.23,6.95-.55,14.6,5.42,19.08,8.77,6.6,14.65,15.6,21.89,23.45,4.25,4.61,7.89,9.83,2,16a8.28,8.28,0,0,0-1.55,3.69c-.45,1.81-1.45,3.9.48,5.38s4.24.71,5.89-.66c3.85-3.19,7.56-6.56,11.17-10,5.12-4.91,4.41-11.33-2.16-13.47-7.13-2.32-9.76-7.44-11.6-13.73-3.34-11.35-5.08-23.26-11.68-33.48-1.64-2.53-1.8-5.37-2.16-8.26-1-7.69-.13-15.7-1.8-23.09-3.4-15,8.66-21.22,15.41-30.51.18-.25,1,0,1.57,0,.57,2.93-.71,5.17-2.42,6.94-8.67,8.93-10.64,19.57-8.81,31.47,1.08,7,.2,14.54,3.31,21,4.75,9.91,8.66,19.92,10.73,30.77a19.27,19.27,0,0,0,12.06,14.54c6.71,2.77,8.07,5.26,7,12.25a21.26,21.26,0,0,1-5.64,11.13c-3.9,4.3-8.6,7.58-13.35,10.87-9.36,6.48-10.57,11-6,21.44a78.11,78.11,0,0,0,4.57,7.9c5.78,9.81,13.76,17.95,20.49,27,5.59,7.58,6.68,15.19,2,23.7a107.94,107.94,0,0,0-6,14.36,62.89,62.89,0,0,1-11.91,19.41,16.23,16.23,0,0,1-13.28,5.82,130.92,130.92,0,0,0-19.1.93,13,13,0,0,0-11.1,8.73c-2,5.47-2.81,10.45,2.5,14.64a12.67,12.67,0,0,1,4.68,10.74c-.2,7.34,4.53,10.64,10.31,12.88,4.94,1.91,9.48.7,13.12-3.3,3.36-3.69,7.35-4.48,12.12-3.15,6.23,1.72,12.69,1.67,19,1,5.64-.6,9.42-4.46,11.47-9.46,1.73-4.18-3.4-4.26-5-6.58,1.58-1.7,3.8-3.11,4.49-5.07,1-2.78,1.81-5.71,5.12-4.77,2.68.77,1.39,4,1.45,6.14.3,11.44,10.67,18.65,21.68,15.28,8.23-2.51,12.7-9.6,18.85-14.64,3.43-2.81,3.76-6.11.84-9.55-1.13-1.32-2.77-2.6-1-4.37s3.41-1.31,5.08.29c6.92,6.64,14.35,12.85,17.09,22.68.44,1.6.67,3.79,2.92,4.35a6.32,6.32,0,0,0,1.57-5.57c-1.54-9.6,2.33-15.82,11.28-19.36a4.83,4.83,0,0,0,3.23-4.94c-.89-21,5.37-41.4,4.9-62.29-.29-12.43,3.3-23.81,8.3-34.55,6.56-14.07-2-35.39-19.39-39.64-9.84-2.41-19.59-1.81-29.41-1.7-7.69.08-13.62-2.57-16.64-9.9A24,24,0,0,0,782,911.9c-3.48-2.57-6.41-6.81-5.22-11,2.73-9.63-2.92-17.56-4.28-26.31-.51-3.3-2.44-6.8-7.14-7.2-6.81-.58-8.49-3-7.07-10,1-4.87,2.51-9.63,3.67-14.47,1.94-8.1,0-12.45-6.55-17.31-9.27-6.89-14.06-17-18.33-27.32-.88-2.13-.47-5.06.07-7.45,1.2-5.31,2.76-10.49,1.07-16-.66-2.14.92-3.39,2.61-3.77,1.92-.43,1.88,1.65,2.19,2.78,1.12,4.19.71,8.4,0,12.65-2.08,13,5.8,30,16.33,34.68,2.73,1.21,6.11,2.13,6.85,4.78,2.66,9.56,4.46,19.51-.24,28.85-2.28,4.54-.23,5.66,3.07,6.28,4.46.83,6.56,3.27,7.34,7.6a27.21,27.21,0,0,0,2.68,7.6c3.41,6.59,5.81,13.27,5.3,21-.39,5.81,2.11,10.6,8.11,12.45,2.75.84,3.79,3,5.34,4.91,1.35,1.65,1.37,5.14,4.44,4.54,2.51-.49,3.79-2.76,4.83-5.26,2-4.87,4.82-9.15,10.46-10.78,9.51-2.74,10.78-7,5.46-15.47-4.29-6.83-11.18-6-17.54-6.57-6.85-.65-9.5-4.26-7.4-10.83,3.06-9.55,1.23-14.11-7.86-18-3.8-1.6-5.54-3.19-2.92-7.17,1.14-1.74,1.68-3.87,2.76-5.66,1.22-2,1.7-4.26.18-5.94-5.8-6.45-5-14.2-4.92-21.9,0-5.17,1.3-10.52-.92-15.48-1.42-3.19-2-6.21-.73-9.49,1-2.45.09-4.12-2.13-5.21-6.69-3.26-10.49-9.4-14.8-15-.6-.77-2.94-1.65-1-3.14,1.23-.94,2.68-2.56,4.56-.9a21.73,21.73,0,0,1,2.08,2c4.63,5.31,8.21,11.62,14.86,14.95,1.91,1,1.56,2.85,1,4.64-.93,3.21-1.66,6.7,0,9.64,3.55,6.11,2.87,12.58,2.63,19.12-.22,6.17-.65,12.36,3.36,17.86a8.64,8.64,0,0,1,.27,9.43c-3.11,5.38-.84,7.65,3.83,10.31,5.65,3.22,10.52,13,7,18.22-3.2,4.82-2.34,6.42,3.48,7.74,4.52,1,9,2.65,13.57,2.89,4.76.24,6.53,3.53,7.72,6.68,1.32,3.5,2.38,7.38,1.93,11.33-.86,7.56-3.26,12.48-11.82,12.84-3,.12-5,1.83-6.44,4.29-.57,1-.77,2.42.65,3,2.48,1,4.83.36,7.24-.72,12.84-5.78,20.13-4.06,29.05,7,3.58,4.45,6.95,9.1,10.12,13.86,1.22,1.83,2.66,4,4.41,4.12s2.4-2.69,3-4.42c1.42-4,3.07-7.93,3.7-12,1.24-8.12.47-15.61-7.33-21-7-4.83-9.48-12.62-8.22-20.44,2.21-13.75-2.49-25.77-7.17-38-.84-2.18-1.9-4.17-4-5.4-9.89-5.74-15.07-14.9-18.11-25.45-2.76-9.61-2.71-19.47-1.52-29.29.41-3.41-.93-4.48-4-4.93-2.74-.41-6.09.4-7.81-2.76-3.71-6.77-7.64-13.22-15-16.85a3.23,3.23,0,0,1-.77-5c1.35-1.3,3.12-.55,4.5.93,4.54,4.89,11.35,7.54,13.25,15.12.65,2.58,4.45,3.84,7.67,4.33,3.6.56,3.54-1.94,4-4.18a.8.8,0,0,1,1.31-.52c2.63,1.75,7.17,1.65,6.15,6.91a55.34,55.34,0,0,0-.37,17.37c1.42,11.54,3.84,22.62,14.43,30.12,4.42,3.13,6.29,1.77,8.11-2,1.23-2.58,1.82-5.5,4.88-6.79,6.34-2.68,7.67-5.7,5.55-12.4-1.05-3.3-2.26-6.54-3.23-9.86-.43-1.5-.59-3.28,1.85-3.23,1.64,0,3.63-.45,3.9,2.23.23,2.28,1.06,4.55,1.36,6.72,1.32,9.73,4.11,19.85-5.56,27.61-4.87,3.91-4.69,9.45-2.83,14.88a55.8,55.8,0,0,0,11.47,19.11c4.48,5,8.69,10.21,10.7,16.83,3.21,10.6,2.18,21.36,1.63,32.16-.6,11.79.39,23.58,1.28,35.34.29,3.82,1.55,8.66,5.4,9.36s6.06-3.87,7.8-7.09c7.48-13.84,16.65-26.57,25.29-39.67,4.82-7.29,10-14.62,12.3-23.32,2.75-10.21,1.38-12.86-8.65-15.36-2.57-.64-3.39-2-3.72-4.34-.78-5.53-1.07-11.26-2.83-16.48-2.67-8-4.88-15.92-4.7-24.31.1-4.42-1.61-6.26-5.93-6.61-3.77-.32-8.16-.18-10.42-3.93-3.83-6.35-5.72-13.5-8.35-21.5,5.08,2.72,6.87,6.73,8.56,10.34,3.44,7.31,8.42,11.71,16.76,11.7,3.64,0,4.58,2.26,5.3,5.54,2.38,10.88,2.48,22.14,5.8,32.87,1.57,5.1,1.64,11.15,9.7,9.36a3.85,3.85,0,0,1,2.73.72c4.09,2.94,6.82,1.21,9.86-2,6.44-6.84,6.6-6.7,14.58-2,.33.19.54.58.88.75,4.46,2.26,11.47,1.5,13.17-1.91,5.14-10.29,6.58-21.83,1.79-31.78-6.37-13.21-13.06-26.85-25.61-36a6.45,6.45,0,0,1-2.41-3.15c-1.53-5.92-4.86-10.8-8.33-15.68-1.51-2.11-3.21-5.11-.06-7,3-1.8,4.51,1,5.61,3.25,5.73,11.84,16.62,19.94,22.71,31.51.32.61.94,1.29,2.23.47,1.22-5.73-.86-10.55-4.91-14.82-2.63-2.79-5.28-5.58-7.66-8.57-6.4-8.07-3.86-15.28,6.21-18a23.74,23.74,0,0,1,4.54-.92c3.4-.23,6.23-.65,7.76-4.6.88-2.28,4.64-3.5,6.37-2.19,2.52,1.88-.34,4.25-1.63,5.82-3.4,4.18-8.64,5.52-13.34,7.6-7.55,3.33-8.23,6.12-2.59,12.2s11.2,12.34,12.62,20.85a141.29,141.29,0,0,0,6.16,23.46c4,11.48,3.52,22.84-.32,34-1.55,4.5-1.37,8,1,11.81,1.13,1.77,1.64,4,2.94,5.58,9,11,12.84,23,12.24,37.67-.5,12.28,5.57,17.81,19.38,13.61a3.58,3.58,0,0,0,.56-.16c10.22-4.41,18.14-1.14,25.07,6.94,5,5.81,9.82,11.87,16.34,16.18,5.62,3.71,8,2.83,10.86-3.47,4-8.84,1.7-16.41-4.31-23.23-6.2-7-8.55-14.59-5.14-23.79,1.74-4.71,4.58-8.81,6.2-13.62,2.33-6.89,1-14,2.17-21.82A23,23,0,0,1,1083,874.4c.2,6.81-2.48,12.83-5.52,18.52-4.57,8.56-4.22,16.43,2.31,23.41,5.28,5.64,6.1,12,5.73,19.22-.31,6-2.56,11.19-5.2,16.25-1.7,3.27-.45,5,1.82,6.84,2.59,2.11,3.93,6.74,8.73,4.28a122.12,122.12,0,0,0,29.4-21c6.24-6.05,5.84-11.37,0-18.2-2.24-2.63-4.65-5.11-6.79-7.81-15.12-19-16.42-38.13-2.88-56.16,7.09-9.43,10-19.5,8.19-30.82-1.57-9.65-3.56-19.57-8.31-28-6.46-11.49-10.15-23.07-8.82-36.29a23,23,0,0,0-1.55-9.64,29.78,29.78,0,0,1-1.11-17c.58-2.65-1-4.08-3.26-5.45-4.57-2.81-7.23-7.13-6.81-12.55.24-3.09-2.43-8.34,1.84-8.81,3-.32,3.17,5.38,3.57,8.69s1,6.45,4.49,7.29c5,1.23,5.82,4.43,5.15,8.72-1.2,7.71-1.45,15.3,2.21,22.55,1.75,3.46,1.45,7,.4,10.7a17.42,17.42,0,0,0,1.61,14c3.42,6,6.51,12.16,9.5,18.36,7.3,15.17,12.72,30.66,7,47.77-2.5,7.53-6.74,14.19-10.64,21-6.35,11.11-7,22,.3,33,3.52,5.34,7.89,9.92,11.87,14.83,4.77,5.88,6.93,12.11,4.55,19.86-1.92,6.29-5,12-7.71,17.84-2.21,4.68-1.2,7.19,3.75,8.42,6.73,1.68,13.58,2.91,20.28,4.68,10.42,2.76,19.42-.63,27.82-6.23s14.08-14.22,22.83-19c7.33-4,8.17-9.57,8.17-17Q1205.69,545.36,1205.79,164ZM891,361.8c0-2.65.74-3.77,3.6-3.73,9.46.14,18.94.17,28.41,0,3.54-.07,4.14,1.59,4.09,4.59-.13,7.92,0,15.85,0,23.77s-.18,15.86.07,23.78c.12,3.86-1.44,5.19-5.05,5.16-8.89-.07-17.78-.12-26.67,0-3.2.05-4.46-1-4.43-4.3C891.06,394.66,891,378.23,891,361.8ZM706.63,345.23a74,74,0,0,1,40-14.64c23.85-1.63,46.39,2.45,66,17.37a41.08,41.08,0,0,1,11,13.08c1.57,2.84,2.26,4.88-1.6,6.93-5.49,2.91-10.56,6.64-15.72,10.14-3.32,2.25-4.5-.79-5.92-2.42a54.62,54.62,0,0,0-24.71-16.33c-21.07-6.93-47-.94-59.55,15.17-14.75,19-11.46,48.76,15.12,61.18,20.08,9.38,40.29,8.8,59.36-3.73,4.89-3.21,8.4-7.89,12.28-12.13,3.69-4,7.25-5.24,11.79-1.3,3.42,3,7.55,5,10.69,8.51,2.47,2.76,2.4,4.7.7,7.55-9.79,16.43-24.77,25.46-42.69,30.62-8.42,2.42-17,3.15-23.5,3.74-22.75-.54-42.1-4.87-58.06-19.08-13.36-11.91-21-26.51-22.26-44.59C677.77,380.28,686.68,360.22,706.63,345.23ZM576.44,365.67c17,1.21,33.82,13.13,39.56,30A63.8,63.8,0,0,1,618.91,409c.25,2.17-.09,3.79-2.9,3.81-2.38,0-3.72-.16-4-3.24-1.8-17.44-10.66-29.5-27.56-35.32a24.31,24.31,0,0,0-7.95-1.21c-3.32,0-5.26-1.25-5-4.68C571.66,364.75,574.53,365.76,576.44,365.67Zm-1.23,22.45c-2.7-.41-4-1.63-3.7-4.05s2-3.72,4.5-3.24c14.43,2.76,25.89,12.64,27,28.46.45,2,.25,3.52-2.67,3.55-2.47,0-3-.82-3.45-3.24C594.74,396.84,587.82,390.05,575.21,388.12Zm10.87,17.53c-.59,4.42-2.68,7.2-7.44,7.1s-6.44-3-6.62-7.12,3.51-7.74,7.3-7.31C583.51,398.8,585.74,401.45,586.08,405.65Zm-228.19-6.33h.23c0-19.95.11-39.89-.09-59.83,0-4.31.79-6.06,5.62-6q56.34.29,112.68,0c4.72,0,6,1.58,5.71,6a101.34,101.34,0,0,0,.08,15.09c.4,4.63-1.26,5.84-5.78,6-27.48,1-55,.48-82.45.76-7.93.08-7.93,0-7.94,7.65,0,13.28,0,13.3,13,13.36,14.72.06,29.44.28,44.14,0,4.72-.09,6,1.43,5.72,5.9a126,126,0,0,0,0,15.67c.23,4.17-1.43,5.2-5.38,5.18-17.23-.09-34.47.27-51.69.14-4.56,0-6.2,1.27-5.87,5.91A119.67,119.67,0,0,1,386,432c-.35,5.12,1.46,6.67,6.56,6.63,28.85-.2,57.7-.1,86.55-.09,8.57,0,8.57,0,8.57,8.54,0,4.07-.31,8.17.08,12.19.46,4.71-1.38,5.91-5.88,5.87-23.42-.19-46.85-.09-70.28-.09-16.07,0-32.14-.14-48.2.1-4.25.06-5.64-1-5.58-5.42C358,439.59,357.89,419.45,357.89,399.32Zm-131.95,4.75c2.78-6.72,7.7-11.3,15.85-12.8-3.06-1.46-5.49-3-7.09-5.42a9.08,9.08,0,0,1-.84-8.37c1.76-4.36,5-7.14,10.29-6.65,5.58.51,8.52,4.3,9.18,8.84.84,5.77-3.24,9.32-8.46,11.72,4.56-1.41,8.17,7,13.11.92a23.51,23.51,0,0,1,8.16-3.95c1.06-2.8-1.88-2.41-2.91-3.38-4.42-4.13-5-9.53-1.1-13.69,4.25-4.53,9.12-4.67,13.65-.38,4,3.81,3.85,9.6-.33,13.72-1.13,1.11-3.48,1.32-2.93,3.74,3.27,2.33,8.27,2.17,9.88,6.88,3,2.61,5,5.47,2.3,9.48a84,84,0,0,1-20.84,0c-3.75,7-10.34,5-16.23,5.12s-12-.24-18,.09C224.32,410.28,224.76,407,225.94,404.07ZM70.21,359.6c-4.09,0-5.59-1.38-5.28-5.4.51-6.68-2.57-15.24,1.65-19.55,3.71-3.8,12.15-1,18.49-1,15.29-.14,30.59-.05,45.88-.05,19.74,0,39.49.21,59.23-.13,5.36-.09,6.77,1.6,6.16,6.6a56.68,56.68,0,0,0-.29,12.75c.66,6.21-2.06,7.45-7.66,7.29-12.57-.37-25.16.08-37.74-.22-4.62-.12-5.87,1.31-5.83,5.86.26,27.67.25,55.35.26,83a47.79,47.79,0,0,1-1.43,12c-.93,3.67-2.31,4.59-5.76,4.4a120.6,120.6,0,0,0-15.09,0c-5,.37-6.62-1.12-6.57-6.4.26-30.77,0-61.55.26-92.33.06-5.47-1.69-6.91-6.79-6.83C96.54,359.78,83.37,359.44,70.21,359.6ZM1109.43,542.86c-16.22,6.15-33.09,10.09-49.74,14.73-16.85,4.7-33.33,10.37-49.63,16.7-23.37,9.09-46.15,19.71-70.27,26.94-12.32,3.69-24.2,8.7-37.23,9.78-18.37,1.53-32.13-8.77-35.06-26.61-.81-4.87,1.14-9.59.63-14.44-.2-1.91,0-4.15-2-5-1.83-.77-3.15.82-4.59,1.8-8,5.47-14,12.94-20.77,19.72s-11,7.74-17.33,3.63c-5.59-3.65-6.39-8.82-3-17.3,2.82-7.1,5.36-14.31,8.59-23-29.35,10.84-58.43,18-87.22,26-12.7,3.55-25.69,6.56-39.12,6.54a54.23,54.23,0,0,1-24.42-5.65c-9.72-4.8-14.75-13-17.19-23.1-.92-3.82-1.85-5.92-6.48-4.34-9.6,3.29-19.47,5.81-29,9.2-14.52,5.14-29.66,7.94-44.36,12.39s-29.58,8.39-44.79,10.73c-18,2.76-40.09-.83-49.19-17.21-1.89-3.41-3.75-6.91-4.29-10.67-.61-4.25-1.8-5.37-6.23-4.17q-28.62,7.8-56.85,16.9c-12.58,4.07-25.18,8.06-37.6,12.6-15.1,5.52-29.83,12-45.27,16.72s-31.17,9.36-47.48,7.1c-8.17-1.14-12.26-.26-22.81-14.24-10.67,12-25.15,17.86-39.49,23.69-19.8,8.05-40.41,13.56-61.32,17.81-10.75,2.19-21.62,4.32-32.7,3.08-20.89-2.32-34.74-11.62-35.22-36.51-.34-17.78,4.47-34.66,11.33-50.92,15.06-35.73,36.89-66.57,66.91-91.31,12.06-9.94,25.34-17.6,41.63-17.16,16.49.45,29.88,15.16,30.87,30.31,1.26,19.29-6,36.15-16,52-4.22,6.74-14.38,4.5-20-3.54-6.32-9-2.28-17.28,1.22-25.67,3.09-7.41,7.41-14.27,9.07-22.32.83-4-.56-5.07-4.08-4.34-7.14,1.48-13.14,5.32-18.88,9.56-16.88,12.45-30,28.34-41.59,45.65a247.19,247.19,0,0,0-23.11,42.23c-5.57,13.38-10.08,27-9.34,41.82.21,4.26,1.69,5.52,6,5.31,25.21-1.2,49.25-7.33,72.89-15.84a299.83,299.83,0,0,0,37.45-15.93c9-4.71,17.32-5.39,24.54,4.41,3.39-8,6.48-15.21,9.42-22.45a4.83,4.83,0,0,0-1-4.92c-1.43-1.78-2.75-3.66-4.23-5.41-8.28-9.82-10.17-20.33-4-32,5.77-10.89,12.76-20.58,24.62-25.38a18,18,0,0,1,17.64,2.08c8,5.56,8.59,14.22,1.82,23.1-6.12,8-13.86,14.4-21.73,20.48-3.61,2.79-2.58,4.6-.86,7.23a8.81,8.81,0,0,0,1.05,1.38c9,9.07,9.56,19.16,3.7,30.08-1.4,2.6-4.28,5.83-2.15,8.18,1.91,2.11,5.82.38,8.86-.17,20.73-3.74,39.71-12.46,59-20.36,11.53-4.72,23.26-9.07,35.15-12.75,20.87-6.45,41.89-12.47,63-18.2,4.82-1.31,9.59-2.83,14.43-4,6-1.51,9.56-5.52,10.11-11.21,1.33-13.86,9.42-23.53,19.62-31.34,15.91-12.19,33.7-16.6,53-8.64,8.62,3.55,14.52,10,16.2,19.43,1.9,10.66-.8,19.7-9.76,26.6-12.27,9.46-26.9,12.66-41.42,16.26-3.56.88-7.16,1.58-10.74,2.35-4,.87-6.26,2.73-5.86,7.47.39,4.52,1.71,7.77,6.26,9.22,8.7,2.77,17.42.78,25.84-.77,27.24-5,53.78-13,80.42-20.5,13.51-3.8,27.13-7.14,40.66-10.81,3.31-.9,4.75-2.37,5.15-5.84,2.24-19.47,13.43-32.6,30.57-40.69a36.16,36.16,0,0,1,34.45,1.47c21.54,12.49,15.63,36.63-.69,46.39-11.63,7-24.44,11-37.67,13.45-4.85.92-7.86,2.67-7.53,8.21.32,5.32,2.34,8.57,8.06,9.44,12.18,1.84,23.82-1.16,35.51-3.52,23.4-4.71,46.28-11.47,69.21-18,14.23-4,28.63-7.28,42.87-11.21,7.63-2.11,9.79-8.78,13.09-14.37,20-33.92,45.19-62.76,80.56-81.38,12.15-6.4,24.92-11.09,39.2-8.09,14.47,3,19.42,16.19,15.4,28.77-5.33,16.64-18.35,27.16-31.38,37.22a316.52,316.52,0,0,1-46.92,30c-1.82.94-3.78,1.67-5.82,4.24,7-.47,12.29-3.65,18-5.07,8.5-2.1,16.81-3.7,23.75,3.62,5.24,5.52,4.88,10.43-1.26,16.35-9.09,8.78-21,10.52-32.66,13.06-6.93,1.51-14,2.24-20.72,4.85-2.17.85-4.2,1.54-2.25,4.38,3.67,5.35,2.83,11.41,2.72,17.35-.16,8.76,1.7,10.87,10.51,11.71a51.46,51.46,0,0,0,23.27-3.46c19.38-7.28,37.56-17.28,56.78-24.93,19-7.54,38.4-13.57,58-19.09,19.4-5.46,38.87-10.67,58.23-16.26,11.35-3.28,18.8,1.68,18.85,12.93C1113.34,540.38,1112.32,541.76,1109.43,542.86Zm12.72-77.74a99.9,99.9,0,0,0-15.08-.36c-4.87.26-6.62-1.72-6.47-6.41.41-12.76.8-25.53.89-38.3.08-11.28-.1-11.3-11.32-11.28-20.13,0-40.27.21-60.4,0-4.72,0-6.59,1.22-6.34,6.13.55,11.2.94,22.42,1,33.64.06,16.11-.47,16.49-16.25,16.49-13.28,0-13.29,0-13.27-13.47,0-37.55.14-75.11.05-112.67,0-4.06,1.24-5.54,5.3-5.39,6.19.22,12.4.22,18.58-.08,4-.19,5.4,1.14,5.32,5.25-.23,12.19,0,24.39-.15,36.58-.07,3.92,1,5.4,5.14,5.37q33.39-.27,66.78,0c3.94,0,4.89-1.41,4.85-5-.12-12.19.22-24.39,0-36.58-.08-4.41,1.32-5.79,5.64-5.52a148.72,148.72,0,0,0,17.41.1c4.29-.24,5.18,1.53,5.15,5.39-.14,20.13-.06,40.26-.06,60.4,0,19.74-.22,39.49.13,59.23C1129.12,464.16,1127.34,465.65,1122.15,465.12Z"/><path class="cls-1" d="M749.32,117.83H302.72c-1.75,0-3.49,0-5.23,0-3.23.08-4.29-1.31-2.94-4.31q12.48-27.81,25-55.6c7.75-17.28,15.72-34.46,23-51.92,1.9-4.55,4-6,8.79-6q161.75.2,323.49.1Q936.76.14,1198.68,0c5.92,0,7.31,1.48,7.26,7.31-.3,34.07-.15,68.14-.15,102.21,0,8.3,0,8.31-8.12,8.31Z"/><path class="cls-1" d="M1012.54,1013.14c4.09-2.61,6.69-6.8,11-9.11,5-2.67,10.48-3.65,15.61-5.74,2.75-1.12,4.34-2.46,4.5-5.81.19-4,1.41-7.92,2-11.91a3.5,3.5,0,0,1,3.44-3.33c8.61.06,9.89-6.11,11.24-12.5.46-2.16-.58-5.55,1.75-6.24,2.5-.74,3.67,2.61,5.18,4.31,11.27,12.72,24,23.67,38.76,32.09,3.57,2,3.38,3.54.06,6-12.84,9.58-27.17,16.53-41.27,23.85q-40.27,20.91-80.75,41.42c-22.53,11.42-45,22.84-67.85,33.67a90.83,90.83,0,0,1-26.47,8c-8.06,1.11-11.19-1.64-11.67-9.9-.53-9.24,2-18,4.13-26.79a319.39,319.39,0,0,1,12.4-41.34c1.48-3.81,3-7.45,5.83-10.5,7.8-8.48,12.81-19,20.6-27.6,4.82-5.31,10.54-6,16.74-5.74,4.4.21,7.38,7.85,4.37,11.46-4.36,5.22-4.08,9.93,0,15,2.14,2.69,4.17,5.53,3.88,9.32-.08,1,.19,2,1.43,2.16,1.61.2,1.86-1.06,2.06-2.19a10.72,10.72,0,0,0-1.69-8.26c-5.37-8.12-5.37-10.55.35-18.52,1.53-2.14,1.36-3.73.39-5.8-4-8.6-3.9-9.46,2.29-16.06.4-.42.93-.88,1-1.39,1.39-8.91,7.61-15.7,10.54-23.72,3.21-8.82-1.56-16.74-8.43-22.92-2-1.8-4-3.57-6.14-5.27-5.72-4.63-8.16-10.16-4.29-17.07,3.5-6.25,1.92-13.25,3.31-19.8,1.72-8.1,9.32-14.68,17.36-14.75,6,0,12.21,2.57,18.1-1a2.33,2.33,0,0,1,3,1.06c1.88,2.9,4.44,5.26,6,8.45,6.57,13.72,12.4,27.39,9.65,43.38-1.4,8.12,6,13.85,15.13,13.12,5.38-.43,10.48-2.53,16-2.36,10.77.34,21.57,9.77,23.09,20.45.66,4.6,1.56,9.15.79,13.83-.52,3.13-1.59,5.31-5.43,5.39-5.83.11-9.14,2.79-8.67,9.28.29,4-1.71,7.83-2.13,11.91-.35,3.48-4.13,2.65-6.66,3-8.69,1.37-13.64,8.36-19.85,13.38C1012,1009,1011.53,1011.1,1012.54,1013.14Z"/><path class="cls-1" d="M401.75,1045.78c-4.22-4.16-8.75-4.76-12.33-7-2-1.24-7.65-1.94-1.29-6.18,3.64-2.43,1.59-7.66-.24-11.15-1.53-2.94-2.26-4.63,1.45-6.09a7.39,7.39,0,0,0,3.4-3c4.38-7.52,11.51-7,18.27-5.76a162.6,162.6,0,0,1,36.82,11c8.18,3.6,10.87,11.54,11.91,19.5,1.1,8.45-1.1,16.92-2,25.38-.27,2.52-1.31,2.61-3.44,2.24-4.75-.82-9.56-1.34-14.36-1.92-1.89-.24-4.13.4-4.17,2.19-.07,2.61,2.61,1.32,4.1,1.71a8.24,8.24,0,0,0,1.73.07c14.22.55,17.84,4.21,18.44,18.58.31,7.52-.38,15.08,1,22.58.42,2.31.63,4.59,2.32,6.34,7.87,8.15,14.35,18.18,27.43,19.07,5.35.36,8.45,3.16,8.77,9.36.62,12.33,3.13,24.53,3.35,36.92.14,7.89.08,7.93-8.06,7.88-13.76-.07-27.24-2.63-40.66-5.2-17.48-3.36-35.2-4.34-52.82-6.18-17.13-1.79-33.54-6-49.87-11.19-11.56-3.68-22.79-8.14-34.16-12.28-3.89-1.41-7.38-3.58-8.05-8.1-.73-4.84,2.3-8,5.89-10.41a24.25,24.25,0,0,0,9.6-11.75,10.42,10.42,0,0,1,2.56-3.75c2.05-2,4.45-2.05,6.32-.72,2.28,1.63,0,3.42-.88,5-.65,1.16-1.77,2.06-2.49,3.19-1.41,2.18-2.42,4.67-1.15,7.11,1.11,2.15,3.47,1,5.3,1.08a14.34,14.34,0,0,1,6,1.42c6.79,3.36,10.33,2.44,16-3.08,4.48-4.35,8.82-8.57,7.31-15.84-.69-3.36.67-4.77,4.69-3.68,4.87,1.33,9.67,3.16,15.23.91,4-1.63,5.38-3.83,4.48-7.32-2-7.58,1.38-12.31,7.72-15.44,4.6-2.26,7.52-5.12,6.33-10.72a4.56,4.56,0,0,1,1.78-4.65c4-3.06,2.61-7.32,2.62-11.25,0-1.16-.26-2.44-1.89-2.31-1.47.12-1.58,1.31-1.91,2.47-3.38,11.64-6,23.67-18,30.25-3,1.67-2,5.12-2.19,7.94-.33,6.53-1.67,7.74-8.16,7.13a20.94,20.94,0,0,1-5.16-.74c-3.25-1.17-6.43-1.65-9.49.18-4.1,2.46-.36,5.48-.27,8.19.16,4.89-2.82,7.82-6.05,10.47s-7.46,3.06-11.49,1.55c-2.49-.93-3.39-3-2.75-5.66.91-3.78,3.49-7.9-1.47-10.74-4.71-2.7-11.82-1.6-16.19,1.88a20.77,20.77,0,0,0-4.62,5.12c-.9,1.38-1.92,2.74-3.63,2.36-4.82-1-6.66-5.52-9.34-8.86-2-2.48.86-4.13,2.1-5.92,4.21-6.07,9.36-11.26,16-14.61,9.82-5,17.2-12.72,24.48-20.63,5.05-5.49,9.81-11.26,14.85-16.77a45.63,45.63,0,0,0,8.91-15.25c1.27-3.44,3-4.55,6.53-2.72,4.6,2.36,9.7,3.83,14,6.54C394.25,1046.63,397.2,1045.68,401.75,1045.78Z"/><path class="cls-1" d="M603,1288.71H7.14c-7.3,0-7.12,0-7-7.23,0-3.68,1.15-5.5,5-5.11,1.35.13,2.71,0,4.07,0l1187.16-.07a15,15,0,0,0,2.32,0c5.35-.85,7.22.93,7.38,6.77.17,6.27-3.09,5.68-7.08,5.68Q901,1288.7,603,1288.71Z"/><path class="cls-1" d="M664.76,1127.36a94.14,94.14,0,0,1,4.49-28.64c1.28-4,3-9,9-7.7,5.53,1.16,7,5.67,7.08,10.53.09,5.56,1.56,10.57,6.5,13.26,7.12,3.87,14.55,4.89,21.79-.3a19.06,19.06,0,0,1,15.19-3.65c10.07,1.73,20.08,1.6,28-6.6a3.55,3.55,0,0,1,5.18-.42c.43.33,1.18.24,1.62.56,17.33,12.42,31.39,1.26,40.17-11,4.58-6.37,6.14-6.52,9.74.75a77.29,77.29,0,0,1,4.38,12.43c1.38,4.65,3.89,7.45,9.11,6.93s8.51-3.62,9.29-8.7a38.2,38.2,0,0,0,0-10.41c-.54-4.24,2.14-5.44,5.16-6.39,3.64-1.14,3.67,2,4.86,4.14,4.24,7.71,8.69,15.32,13.24,22.86a35.21,35.21,0,0,1,4,10.08c1.43,5.9-2.37,11.51-9.87,15-28.29,13.18-56.78,26-84.83,39.64-18,8.8-35.46,18.91-53.15,28.44-7.58,4.09-15.11,8.28-22.76,12.24-4.57,2.37-7.34.88-9-4.33a79.07,79.07,0,0,1-3.44-24.6c.07-14.69-5.46-27.33-10.88-40.27C666.37,1143.4,664.17,1135.23,664.76,1127.36Z"/><path class="cls-1" d="M6.05,59.39C6.05,42,6.14,24.55,6,7.13c0-4,.71-5.93,5.35-5.88,21.68.24,43.36,0,65,.25,13.9.17,25,6,31.35,18.72,8.58,17.12,1.86,37.92-15.23,47.24-3.72,2-3.47,3.29-1.59,6.49,7.78,13.21,15.15,26.66,22.83,39.93,2.07,3.58,1.41,4.85-2.68,4.74-4.45-.13-9-.57-13.34.09-6.67,1-9.51-2.6-12.28-7.72C78.85,98.86,71.82,87,65.1,74.92a5.5,5.5,0,0,0-5.52-3.19c-8.32.12-16.65.23-25,0-4.06-.14-4.79,1.59-4.74,5.14C30,89,29.8,101.22,30,113.41c.08,4.08-1.25,5.53-5.32,5.24a81.13,81.13,0,0,0-12.76,0c-4.65.42-6-1.33-6-5.86C6.17,95,6.05,77.2,6.05,59.39ZM53.69,49.08v0c6.77,0,13.57.4,20.3-.11,8.57-.64,12.51-4.8,12.58-10.6C86.69,28.72,84.5,25,75.51,24.12c-14.06-1.33-28.2-.3-42.31-.52-2.55,0-3.3,1.34-3.28,3.65,0,6,.13,12,0,18-.09,3.07,1.11,4,4.08,3.9C40.54,49,47.12,49.08,53.69,49.08Z"/><path class="cls-1" d="M730.37,1030.27c-.14,11.5-10.09,26.15-24.92,25.31-17.06-1-28.21,8.1-35.43,22.81-2.65,5.39-5,6.14-10.27,2.84-7.87-4.91-11-12.94-13.68-21.21-4.11-12.69-.38-23.24,8.45-32.76,3.59-3.87,6.09-8.74,9.22-13,4.86-6.68,10.07-13,17-17.81,7.45-5.24,12.78-12.64,18.65-19.48,6.52-7.61,12.63-6.43,16.42,2.66,1.53,3.66,3.88,7,5.75,10.49,3.8,7.18,4.09,15.26,5.21,23C727.61,1019.22,730.24,1025,730.37,1030.27Z"/><path class="cls-1" d="M242,79.7c6.46-11,11.08-21.92,16.22-32.55Q268.42,26,278.65,4.73c1-2.09,2.25-3.45,4.8-3.41,6.19.09,12.38.05,18.57,0,3.72,0,3.55,1.46,2.16,4.31-9.48,19.48-18.8,39-28.2,58.56q-12.09,25.1-24.22,50.14c-1.33,2.77-3,5-6.61,4.25-4.13-.84-9.1,2.2-12-4-9.77-21.17-19.94-42.16-30.05-63.17-7.36-15.3-14.78-30.57-22.38-45.75-1.65-3.3-1.33-4.46,2.47-4.35,4.25.12,8.58.53,12.74-.1,6.75-1,9.86,2,12.54,7.87C219.21,32.37,230.4,55.42,242,79.7Z"/><path class="cls-1" d="M497,1027.63c0,15.33-3.56,30.17-6,45.17-2.35,14.41.43,28.37,4.35,42.16,1.39,4.86-.15,7.49-5.22,8-7.16.65-15.73-6.55-17.25-14.49-4.69-24.51-7.78-49.19-7.93-74.18,0-3.33-.33-6.61-2.29-9.38-3.33-4.71-3.3-9.16.44-13.6,3.88-4.6,8.61-2.12,12.15-.43a31.62,31.62,0,0,0,14.48,3c7.29-.07,7.29-.07,7.28,7.44C497,1023.37,497,1025.5,497,1027.63Z"/><path class="cls-1" d="M139.4,59.19c0-17.79.09-35.58-.08-53.36,0-3.91,1-5.65,5.16-5.38,4.81.31,9.66.16,14.49,0,3.25-.08,4.43,1.34,4.42,4.53q-.07,54.24,0,108.48c0,3.54-1.21,5.41-5.12,5.13-5.94-.43-13.51,2.35-17.43-1-4.11-3.56-1.25-11.31-1.35-17.21C139.23,86.65,139.39,72.92,139.4,59.19Z"/><path class="cls-1" d="M904.56,1002.28c2.29-8.92,2.72-18,6.82-25C920,962.61,925.17,946.74,931,931c1.46-3.95,3.37-7.73,5-11.61,1.15-2.73,2.09-3.8,4.74-.93,3.63,3.92,8.41,6.82,11.74,10.94,8.5,10.51,8,15.31,1.21,24.59a26.22,26.22,0,0,0-4.76,9.06c-1.53,6.13-6.77,10-9.36,15.63-.76,1.62-4.77,2.55-7.21,2.43-9.84-.51-14.73,6-19.68,12.78C910.59,996.81,908.6,999.92,904.56,1002.28Z"/><path class="cls-1" d="M.08,943.58c6.58,6.26,13.94,7.77,21.07,9.75,5.58,1.55,8.77,4.73,9.27,10.73a15.65,15.65,0,0,0,6.28,11.79c3.84,2.92,3.49,8.21-.16,11.33-2.34,2-4.93,3.79-6.93,6.08-7.32,8.38-16.92,7.84-26.62,7.29C-.31,1000.36.1,998,.1,996,.06,979,.08,962,.08,943.58Z"/><path class="cls-1" d="M869.86,999.78c.41-9.21,5.48-14,9.47-19.24,1.6-2.11,2.54.07,3.3,1.3,3.55,5.81,2,18.75-2.84,23.44-1.56,1.52-3.42,2.83-5.62,1.49C870.89,1004.77,869.57,1001.71,869.86,999.78Z"/><path class="cls-2" d="M525.25,757.75l0,0h0Z"/><path class="cls-2" d="M537.17,796.13c.76-3.57,1.2-7.25,3.38-10.37C541.57,789.92,539.66,793.12,537.17,796.13Z"/><path class="cls-2" d="M525.25,757.75l0,0h0Z"/><path class="cls-2" d="M829,549.79c-29.34,10.84-58.43,18-87.22,26-12.69,3.56-25.69,6.57-39.12,6.54a54.34,54.34,0,0,1-24.41-5.64c-9.72-4.81-14.75-13.05-17.19-23.1-.93-3.82-1.85-5.93-6.48-4.34-9.6,3.28-19.47,5.81-29,9.19-14.52,5.15-29.67,7.94-44.36,12.4s-29.59,8.39-44.79,10.72c-18,2.76-40.1-.83-49.19-17.21-1.89-3.41-3.75-6.91-4.29-10.67-.62-4.24-1.8-5.37-6.23-4.16q-28.62,7.79-56.85,16.89c-12.58,4.07-25.18,8.06-37.6,12.6-15.11,5.53-29.83,12-45.27,16.73s-31.18,9.35-47.49,7.09c-8.16-1.13-12.26-.26-22.8-14.24-10.67,12-25.15,17.87-39.5,23.7-19.8,8-40.4,13.56-61.31,17.81-10.75,2.18-21.62,4.31-32.7,3.08-20.89-2.33-34.75-11.63-35.22-36.52-.34-17.78,4.47-34.65,11.32-50.92,15.07-35.73,36.89-66.56,66.92-91.31,12.06-9.94,25.34-17.6,41.63-17.15,16.48.45,29.87,15.16,30.86,30.3,1.27,19.3-6,36.15-16,52-4.22,6.74-14.37,4.5-20-3.54-6.32-9-2.27-17.27,1.23-25.67,3.09-7.41,7.41-14.27,9.06-22.31.83-4.05-.56-5.08-4.08-4.34-7.13,1.48-13.13,5.32-18.87,9.55-16.89,12.46-30,28.34-41.6,45.66a247.79,247.79,0,0,0-23.11,42.22c-5.56,13.38-10.07,27-9.34,41.82.21,4.27,1.7,5.52,6,5.31,25.2-1.2,49.25-7.33,72.88-15.84a298.43,298.43,0,0,0,37.46-15.92c9-4.71,17.32-5.39,24.54,4.41,3.38-8,6.48-15.22,9.41-22.46a4.85,4.85,0,0,0-.95-4.92c-1.44-1.78-2.75-3.66-4.23-5.4-8.28-9.83-10.17-20.33-4-32,5.78-10.89,12.76-20.59,24.63-25.39a18,18,0,0,1,17.64,2.08c8,5.57,8.59,14.23,1.82,23.1-6.12,8-13.87,14.41-21.73,20.49-3.61,2.79-2.59,4.59-.87,7.22a8.43,8.43,0,0,0,1.06,1.38c9,9.07,9.56,19.16,3.69,30.08-1.4,2.6-4.27,5.84-2.15,8.18,1.92,2.11,5.83.39,8.86-.16,20.73-3.75,39.71-12.47,59-20.37,11.53-4.72,23.26-9.06,35.16-12.74,20.87-6.46,41.88-12.48,63-18.21,4.83-1.31,9.6-2.82,14.44-4,6-1.52,9.55-5.53,10.1-11.21,1.34-13.87,9.43-23.54,19.62-31.35,15.91-12.18,33.71-16.6,53-8.63,8.62,3.55,14.52,10,16.2,19.42,1.89,10.66-.81,19.7-9.76,26.6-12.27,9.46-26.91,12.67-41.42,16.26-3.56.88-7.16,1.58-10.74,2.35-4,.87-6.27,2.73-5.86,7.48.38,4.51,1.7,7.76,6.25,9.21,8.71,2.77,17.42.79,25.85-.76,27.24-5,53.78-13,80.41-20.51,13.51-3.8,27.13-7.14,40.67-10.81,3.31-.9,4.75-2.37,5.14-5.84,2.24-19.46,13.43-32.6,30.58-40.68a36.14,36.14,0,0,1,34.44,1.46c21.55,12.49,15.64,36.63-.68,46.39-11.64,7-24.44,11-37.68,13.46-4.84.91-7.85,2.67-7.52,8.2.32,5.32,2.34,8.58,8.06,9.44,12.17,1.84,23.82-1.16,35.51-3.51,23.39-4.72,46.28-11.48,69.21-18,14.22-4,28.63-7.28,42.86-11.22,7.63-2.11,9.8-8.77,13.1-14.37,20-33.92,45.19-62.76,80.55-81.38,12.16-6.4,24.92-11.09,39.2-8.09,14.48,3,19.43,16.19,15.4,28.77-5.32,16.65-18.34,27.17-31.38,37.23a316.37,316.37,0,0,1-46.91,30c-1.82,1-3.78,1.67-5.82,4.24,7-.46,12.29-3.65,18-5.07,8.49-2.09,16.81-3.7,23.75,3.62,5.24,5.52,4.87,10.44-1.26,16.36-9.09,8.77-21,10.51-32.66,13.05-6.93,1.51-14,2.24-20.73,4.86-2.16.84-4.19,1.53-2.25,4.37,3.67,5.35,2.84,11.41,2.73,17.36-.16,8.76,1.7,10.86,10.51,11.7a51.55,51.55,0,0,0,23.26-3.45c19.39-7.28,37.56-17.29,56.79-24.93,19-7.54,38.4-13.57,58-19.1,19.39-5.46,38.86-10.67,58.22-16.26,11.35-3.28,18.81,1.68,18.85,12.93,0,3-1,4.34-3.89,5.44-16.22,6.15-33.09,10.09-49.74,14.74-16.86,4.7-33.33,10.36-49.63,16.69-23.38,9.09-46.15,19.71-70.27,26.94-12.32,3.7-24.2,8.71-37.23,9.79-18.38,1.53-32.13-8.78-35.07-26.62-.8-4.87,1.15-9.59.63-14.44-.2-1.91,0-4.15-2-5-1.82-.77-3.14.82-4.58,1.81-8,5.46-14.06,12.94-20.78,19.71s-11,7.74-17.32,3.63c-5.59-3.65-6.39-8.82-3-17.3C823.19,565.67,825.73,558.46,829,549.79Zm49.78-39.48a29.62,29.62,0,0,0,4.69-1.77C899.72,499,915.91,489.38,931,478c11.6-8.79,22.69-18,31.5-29.74,1-1.32,2.89-2.81,1.79-4.52-1.24-1.91-3.74-1-5.3-.39-6.27,2.4-12.65,4.71-18.52,7.92-13.66,7.47-25.32,17.67-36.75,28.14A142.82,142.82,0,0,0,878.73,510.31Z"/><path class="cls-2" d="M358.11,399.32c0-19.94.12-39.89-.09-59.82,0-4.32.79-6.07,5.63-6q56.34.29,112.68,0c4.71,0,6,1.59,5.71,6a98.72,98.72,0,0,0,.08,15.09c.4,4.64-1.26,5.84-5.79,6-27.48,1-55,.48-82.45.75-7.93.08-7.93,0-7.93,7.66,0,13.28,0,13.3,13,13.35,14.71.07,29.43.29,44.14,0,4.72-.09,6,1.43,5.72,5.9a126,126,0,0,0,0,15.67c.24,4.18-1.42,5.2-5.38,5.18-17.23-.08-34.46.28-51.69.14-4.56,0-6.19,1.27-5.86,5.91A121.34,121.34,0,0,1,386,432c-.35,5.12,1.46,6.66,6.56,6.63,28.84-.21,57.69-.1,86.54-.1,8.58,0,8.58,0,8.58,8.55,0,4.06-.31,8.16.08,12.19.46,4.71-1.39,5.9-5.88,5.86-23.43-.18-46.85-.08-70.28-.08-16.07,0-32.14-.15-48.21.09-4.24.07-5.63-.95-5.57-5.41.24-20.14.1-40.27.1-60.41Z"/><path class="cls-2" d="M1128.88,399.38c0,19.74-.21,39.49.14,59.23.1,5.55-1.68,7-6.87,6.52a98.61,98.61,0,0,0-15.08-.36c-4.87.25-6.63-1.72-6.48-6.42.42-12.76.8-25.53.9-38.29.07-11.29-.11-11.3-11.32-11.29-20.14,0-40.27.21-60.4,0-4.72,0-6.59,1.23-6.35,6.13.56,11.21.95,22.43,1,33.64.07,16.11-.47,16.5-16.24,16.5-13.28,0-13.29,0-13.28-13.48,0-37.55.15-75.11.06-112.66,0-4.06,1.24-5.55,5.3-5.4,6.18.22,12.39.22,18.58-.07,4-.19,5.4,1.13,5.32,5.24-.23,12.19,0,24.39-.16,36.59-.06,3.91,1,5.4,5.14,5.36q33.39-.27,66.79,0c3.94,0,4.89-1.41,4.85-5-.12-12.2.22-24.4,0-36.59-.09-4.41,1.32-5.79,5.64-5.52a148.7,148.7,0,0,0,17.41.1c4.28-.24,5.17,1.53,5.15,5.39C1128.81,359.11,1128.88,379.25,1128.88,399.38Z"/><path class="cls-2" d="M759.82,469c-22.75-.55-42.09-4.87-58.06-19.09-13.36-11.9-21-26.5-22.26-44.58-1.74-25,7.18-45.08,27.13-60.08a74,74,0,0,1,40-14.64c23.86-1.63,46.4,2.45,66,17.38a40.88,40.88,0,0,1,11,13.07c1.58,2.84,2.27,4.89-1.59,6.93-5.49,2.91-10.56,6.64-15.73,10.14-3.31,2.25-4.5-.79-5.91-2.42a54.68,54.68,0,0,0-24.71-16.33c-21.07-6.93-47-.94-59.55,15.18-14.75,19-11.46,48.76,15.12,61.18,20.08,9.38,40.29,8.79,59.36-3.73,4.89-3.22,8.39-7.9,12.28-12.13,3.68-4,7.25-5.25,11.78-1.31,3.43,3,7.55,5,10.7,8.51,2.46,2.76,2.4,4.7.7,7.55-9.79,16.44-24.77,25.46-42.69,30.62C774.91,467.66,766.32,468.38,759.82,469Z"/><path class="cls-2" d="M130.94,333.57c19.75,0,39.5.2,59.23-.14,5.37-.09,6.77,1.6,6.17,6.6a57.29,57.29,0,0,0-.3,12.75c.67,6.22-2,7.45-7.65,7.29-12.57-.37-25.17.09-37.74-.22-4.62-.11-5.87,1.31-5.83,5.86.26,27.68.25,55.36.26,83a47.73,47.73,0,0,1-1.43,12c-.94,3.68-2.32,4.59-5.76,4.41a116.9,116.9,0,0,0-15.09,0c-5,.37-6.62-1.13-6.58-6.41.26-30.77,0-61.55.27-92.33.05-5.47-1.69-6.91-6.8-6.83-13.15.2-26.32-.14-39.48,0-4.09,0-5.6-1.37-5.29-5.4.51-6.68-2.56-15.24,1.65-19.55,3.72-3.79,12.15-1,18.5-1C100.36,333.47,115.65,333.57,130.94,333.57Z"/><path class="cls-2" d="M263.85,404.77c-3.75,7-10.33,5-16.23,5.12s-12-.23-18,.1c-5.32.29-4.89-3-3.7-5.91,2.77-6.73,7.7-11.31,15.85-12.8-3.06-1.47-5.5-3-7.09-5.43a9.08,9.08,0,0,1-.85-8.37c1.77-4.36,5-7.14,10.3-6.65,5.57.51,8.51,4.31,9.17,8.84.85,5.78-3.23,9.32-8.46,11.73,4.57-1.42,8.17,7,13.12.91-.56,1.88-1.07,4,1,5.07C262.08,399,262.58,402.09,263.85,404.77Z"/><path class="cls-2" d="M927,386.43c0,7.92-.17,15.85.08,23.77.12,3.86-1.45,5.19-5.05,5.16-8.89-.07-17.79-.12-26.68,0-3.2.06-4.45-1-4.43-4.29q.18-24.64,0-49.29c0-2.66.74-3.78,3.6-3.74,9.47.14,19,.17,28.41,0,3.54-.06,4.14,1.59,4.1,4.59C926.93,370.57,927,378.5,927,386.43Zm-32.94-2.19c0,5.4.14,10.81-.05,16.21-.12,3.54,1.28,4.78,4.76,4.69,6.75-.18,13.51-.16,20.26,0,3.52.08,4.84-1.44,4.82-4.82-.07-10.81-.09-21.62,0-32.42,0-3.12-1-4.63-4.32-4.57-7.13.12-14.28.09-21.42,0-3,0-4.16,1.16-4.09,4.14C894.16,373,894.07,378.64,894.07,384.24Zm14.37,28.54c2.18-.16,3.54-.84,3.13-2.77a3.3,3.3,0,0,0-3-2.86c-2.09-.12-2.35,1.48-2.43,3C906,412.12,907.06,412.9,908.44,412.78Z"/><path class="cls-2" d="M576.44,365.67c17,1.21,33.82,13.13,39.56,30A63.24,63.24,0,0,1,618.9,409c.25,2.16-.08,3.78-2.9,3.8-2.37,0-3.71-.16-4-3.23-1.8-17.45-10.66-29.51-27.56-35.33a24.07,24.07,0,0,0-7.95-1.2c-3.33,0-5.26-1.26-5-4.68C571.65,364.75,574.52,365.77,576.44,365.67Z"/><path class="cls-3" d="M263.85,404.77c-1.27-2.68-1.77-5.77-4.87-7.39-2.07-1.08-1.56-3.19-1-5.07a23.69,23.69,0,0,1,8.16-3.95l6.37,0c3.28,2.32,8.27,2.17,9.88,6.88.36,3.25,3.05,5.94,2.31,9.47A83.13,83.13,0,0,1,263.85,404.77Z"/><path class="cls-2" d="M603.06,409.29c.44,2,.24,3.52-2.68,3.55-2.46,0-3-.82-3.44-3.24-2.2-12.75-9.12-19.55-21.74-21.47-2.7-.42-3.94-1.64-3.7-4.05s2-3.73,4.5-3.24C590.44,383.59,601.9,393.48,603.06,409.29Z"/><path class="cls-2" d="M272.51,388.38l-6.37,0c1.05-2.8-1.88-2.41-2.91-3.37-4.43-4.14-5-9.53-1.1-13.69,4.24-4.54,9.12-4.68,13.65-.39,4,3.81,3.84,9.61-.34,13.72C274.32,385.74,272,386,272.51,388.38Z"/><path class="cls-2" d="M586.08,405.65c-.59,4.42-2.68,7.2-7.45,7.11s-6.43-3-6.62-7.13,3.52-7.74,7.31-7.3C583.51,398.81,585.74,401.45,586.08,405.65Z"/><path class="cls-2" d="M284.7,404.73c.74-3.53-1.95-6.22-2.31-9.47C285.43,397.86,287.42,400.72,284.7,404.73Z"/><path class="cls-1" d="M878.73,510.31a142.82,142.82,0,0,1,25-30.95c11.43-10.47,23.09-20.67,36.75-28.14,5.87-3.21,12.25-5.52,18.52-7.92,1.56-.6,4.06-1.52,5.3.39,1.1,1.71-.79,3.2-1.79,4.52-8.81,11.7-19.9,21-31.5,29.74-15.09,11.43-31.28,21.09-47.58,30.59A29.62,29.62,0,0,1,878.73,510.31Z"/><path class="cls-1" d="M894.07,384.24c0-5.6.09-11.2,0-16.79-.07-3,1.14-4.18,4.09-4.14,7.14.09,14.29.12,21.42,0,3.32-.06,4.35,1.45,4.32,4.57-.1,10.8-.08,21.61,0,32.42,0,3.38-1.3,4.9-4.82,4.82-6.75-.14-13.51-.16-20.26,0-3.48.09-4.88-1.15-4.76-4.69C894.21,395.05,894.07,389.64,894.07,384.24Z"/><path class="cls-1" d="M908.44,412.78c-1.38.12-2.43-.66-2.32-2.59.08-1.56.34-3.16,2.43-3a3.3,3.3,0,0,1,3,2.86C912,411.94,910.62,412.62,908.44,412.78Z"/></g></g></svg>